<svg xmlns="http://www.w3.org/2000/svg" width="127.5" viewBox="0 0 127.5 37.5" height="37.5" version="1.0"><defs><clipPath id="a"><path d="M 0.59375 0 L 126.414062 0 L 126.414062 37.007812 L 0.59375 37.007812 Z M 0.59375 0"/></clipPath><clipPath id="b"><path d="M 17.871094 1.550781 L 48.738281 1.550781 L 48.738281 37.007812 L 17.871094 37.007812 Z M 17.871094 1.550781"/></clipPath><clipPath id="c"><path d="M 48.617188 6.628906 L 51.304688 6.628906 L 51.304688 7.957031 L 48.617188 7.957031 Z M 48.617188 6.628906"/></clipPath><clipPath id="d"><path d="M 17.871094 19 L 21 19 L 21 21 L 17.871094 21 Z M 17.871094 19"/></clipPath></defs><g clip-path="url(#a)" fill="#FFF"><path d="M 0.59375 0 L 126.90625 0 L 126.90625 43.839844 L 0.59375 43.839844 Z M 0.59375 0"/><path d="M 0.59375 0 L 126.90625 0 L 126.90625 37.152344 L 0.59375 37.152344 Z M 0.59375 0"/><path d="M 0.59375 0 L 126.90625 0 L 126.90625 37.152344 L 0.59375 37.152344 Z M 0.59375 0"/></g><g clip-path="url(#b)"><path fill="#5D6948" d="M 43.386719 13.964844 C 42.722656 14.0625 42.039062 14.007812 41.371094 14.0625 C 40.390625 14.15625 39.574219 14.320312 38.628906 14.613281 C 38.050781 14.777344 37.421875 14.925781 36.78125 15.011719 C 37.710938 15.171875 38.6875 15.363281 39.878906 16.003906 C 37.644531 15.03125 36.304688 15.503906 34.484375 15.023438 C 34.386719 15.007812 34.292969 14.988281 34.199219 14.96875 C 33.234375 14.691406 32.246094 14.414062 31.25 14.273438 C 30.777344 14.207031 30.335938 14.160156 29.867188 14.296875 C 29.519531 14.421875 28.964844 14.804688 28.421875 15.171875 C 28.675781 15.214844 28.910156 15.296875 29.15625 15.445312 C 29.75 15.824219 30.96875 16.265625 31.671875 16.375 C 30.933594 16.394531 29.679688 16.03125 28.992188 15.746094 C 28.644531 15.597656 28.328125 15.582031 27.957031 15.625 C 27.851562 15.644531 27.75 15.664062 27.65625 15.6875 C 27.570312 15.742188 27.492188 15.789062 27.417969 15.832031 C 27.167969 15.976562 27.011719 16.121094 26.839844 16.351562 C 26.664062 16.605469 26.566406 16.832031 26.472656 17.125 C 26.378906 17.472656 26.328125 17.800781 26.308594 18.128906 C 26.359375 18.078125 26.417969 18.027344 26.480469 17.972656 C 27.003906 17.59375 27.65625 17.402344 28.261719 17.179688 C 27.726562 17.464844 27.117188 17.757812 26.710938 18.214844 C 26.546875 18.410156 26.464844 18.570312 26.394531 18.8125 C 26.363281 18.957031 26.347656 19.09375 26.339844 19.230469 L 26.339844 19.238281 C 26.433594 19.984375 26.117188 20.957031 26.386719 21.695312 C 26.78125 22.367188 26.648438 23.058594 26.933594 23.566406 C 26.976562 23.644531 27.230469 24.066406 27.273438 24.144531 C 26.917969 24.027344 26.648438 23.726562 26.382812 23.453125 C 25.996094 23.058594 25.648438 23 25.339844 22.664062 C 25.171875 22.476562 25.054688 22.28125 24.925781 22.066406 C 24.59375 21.507812 24.375 21.097656 23.894531 20.640625 C 24.300781 21.15625 24.453125 21.589844 24.6875 22.1875 C 24.789062 22.441406 24.886719 22.664062 25.03125 22.898438 C 25.195312 23.144531 25.34375 23.304688 25.601562 23.453125 C 26.222656 23.875 26.550781 24.320312 26.957031 24.777344 C 27.550781 25.4375 28.550781 25.96875 28.960938 26.578125 C 29.25 27.007812 29.699219 27.136719 30.054688 27.503906 C 30.242188 27.695312 30.425781 27.929688 30.632812 28.183594 C 30.707031 28.277344 30.789062 28.375 30.871094 28.472656 C 30.828125 28.464844 30.785156 28.453125 30.742188 28.445312 C 30.398438 28.363281 30.164062 28.21875 29.84375 28.09375 C 29.574219 27.988281 29.277344 27.984375 28.992188 27.863281 C 28.667969 27.722656 28.367188 27.488281 28.019531 27.324219 C 27.585938 27.160156 27.359375 27.015625 27.082031 26.625 C 26.867188 26.324219 26.5 26.191406 26.238281 25.878906 C 26.226562 25.863281 26.214844 25.847656 26.203125 25.832031 C 26.214844 25.847656 26.226562 25.863281 26.234375 25.875 C 26.378906 26.066406 26.539062 26.203125 26.6875 26.335938 C 26.523438 26.207031 26.335938 26.070312 26.183594 25.847656 C 26.335938 26.070312 26.523438 26.207031 26.6875 26.335938 C 26.804688 26.441406 26.914062 26.546875 26.996094 26.679688 C 27.289062 27.148438 27.480469 27.25 27.929688 27.511719 C 28.273438 27.707031 28.535156 27.953125 28.863281 28.136719 C 29.167969 28.289062 29.417969 28.320312 29.703125 28.445312 C 30.050781 28.617188 30.246094 28.789062 30.644531 28.902344 C 30.976562 29.011719 31.339844 29.390625 31.71875 29.589844 C 32.625 30.066406 33.589844 30.515625 34.191406 31.058594 C 34.644531 31.480469 34.914062 31.835938 35.445312 32.164062 C 35.152344 32.128906 34.945312 32.011719 34.65625 32.039062 C 35.125 32.175781 35.195312 32.46875 35.875 32.507812 C 36.277344 32.527344 36.714844 32.296875 37.144531 32.222656 C 37.621094 32.144531 38.054688 32.164062 38.679688 32.183594 C 39.339844 32.238281 40.167969 32.285156 40.804688 32.085938 C 40.1875 32.382812 39.355469 32.40625 38.679688 32.453125 C 37.648438 32.496094 37.378906 32.570312 36.976562 32.753906 C 37.273438 32.828125 37.574219 32.878906 37.871094 32.910156 C 38.644531 32.957031 39.449219 32.953125 40.222656 32.949219 C 45.476562 33.007812 42.980469 35.09375 48.070312 34.171875 C 43.167969 35.316406 45.027344 33.457031 40.257812 33.640625 C 39.3125 33.71875 38.480469 33.773438 37.53125 33.652344 C 37.15625 33.601562 36.695312 33.585938 36.382812 33.3125 C 36.554688 33.628906 37.167969 33.773438 37.5 33.851562 C 38.800781 34.140625 38.710938 34.53125 39.628906 35.222656 C 39.859375 35.382812 40.054688 35.492188 40.324219 35.578125 C 40.652344 35.667969 40.894531 35.671875 41.222656 35.589844 C 40.898438 35.714844 40.644531 35.738281 40.300781 35.691406 C 40 35.632812 39.78125 35.542969 39.515625 35.40625 C 39.367188 35.316406 39.242188 35.230469 39.125 35.144531 C 39.25 35.394531 39.351562 35.65625 39.449219 35.945312 C 39.488281 36.070312 39.527344 36.175781 39.59375 36.289062 C 39.65625 36.390625 39.710938 36.449219 39.804688 36.515625 C 40.054688 36.679688 40.347656 36.707031 40.636719 36.726562 C 40.332031 36.730469 40.035156 36.730469 39.757812 36.601562 C 39.640625 36.535156 39.566406 36.472656 39.484375 36.367188 C 39.394531 36.25 39.339844 36.140625 39.285156 36.007812 C 39.066406 35.511719 38.84375 35.089844 38.433594 34.730469 C 38.164062 34.503906 37.949219 34.398438 37.609375 34.328125 C 37.398438 34.285156 37.199219 34.273438 36.996094 34.257812 C 36.410156 34.210938 36.332031 33.902344 35.84375 33.789062 C 36.089844 33.902344 36.222656 34.0625 36.402344 34.230469 C 36.582031 34.398438 36.699219 34.4375 36.855469 34.640625 C 37.074219 34.929688 37.332031 35.214844 37.542969 35.523438 C 37.921875 36.089844 37.96875 36.46875 37.972656 37.121094 C 37.699219 36.152344 37.210938 35.652344 36.425781 35.046875 C 35.9375 34.667969 35.460938 34.347656 34.996094 33.707031 C 34.511719 33.042969 34.292969 32.863281 33.878906 32.457031 C 33.160156 31.746094 32.515625 31.648438 31.734375 31.09375 C 32.21875 31.679688 32.539062 31.71875 32.890625 32.367188 C 32.96875 32.515625 33.105469 32.675781 33.210938 32.84375 C 33.28125 32.953125 33.339844 33.191406 33.472656 33.417969 C 33.648438 33.710938 33.898438 33.996094 33.953125 34.113281 C 34.191406 34.59375 34.335938 34.96875 34.359375 35.511719 C 34.335938 36.140625 34.136719 36.578125 33.816406 37.109375 C 34.015625 36.574219 34.121094 36.125 33.976562 35.5625 C 33.855469 35.125 33.652344 34.84375 33.371094 34.496094 C 32.890625 33.945312 32.40625 33.496094 32.101562 33.046875 C 32.167969 32.765625 32.1875 32.566406 32.132812 32.300781 C 32.132812 32.476562 32.085938 32.683594 31.96875 32.960938 C 31.734375 33.535156 31.460938 33.851562 31.324219 34.546875 C 31.132812 33.648438 31.257812 33.703125 31.464844 32.8125 C 31.519531 32.515625 31.28125 32.273438 31.246094 31.972656 C 31.238281 31.804688 31.035156 31.796875 30.957031 31.652344 C 30.800781 31.410156 30.648438 31.355469 30.519531 31.246094 C 30.371094 31.121094 30.09375 30.714844 30.035156 31.183594 C 30.011719 31.363281 29.742188 31.398438 29.800781 31.566406 C 29.753906 31.746094 29.832031 31.953125 29.808594 32.15625 C 29.757812 32.597656 29.789062 32.535156 29.804688 32.679688 C 29.8125 32.753906 29.746094 32.921875 29.816406 33.167969 C 30.070312 34.050781 30.242188 34.9375 30.234375 36.019531 C 30 34.667969 29.449219 33.628906 28.863281 32.644531 C 29.007812 32.371094 29 32.179688 28.921875 31.871094 C 28.941406 32.316406 28.773438 32.5 28.617188 32.601562 C 28.320312 32.800781 27.992188 32.96875 27.746094 33.199219 C 27.574219 33.351562 27.460938 33.480469 27.375 33.695312 C 27.257812 33.984375 27.273438 34.230469 27.34375 34.527344 C 27.15625 34.238281 27.054688 34 27.023438 33.65625 C 27.019531 33.339844 27.078125 33.113281 27.207031 32.832031 C 27.433594 32.382812 27.765625 32.011719 27.953125 31.605469 C 28 31.507812 28.046875 31.417969 28.078125 31.316406 C 28.296875 30.800781 28.382812 30.234375 28.3125 29.789062 C 28.300781 30.066406 28.269531 30.3125 28.136719 30.5625 C 28.070312 30.710938 28.066406 30.878906 27.890625 31.019531 C 27.808594 30.792969 27.652344 30.464844 27.550781 30.210938 C 27.164062 29.246094 27.457031 28.507812 26.773438 27.703125 C 26.976562 28.222656 27.042969 28.519531 27.03125 28.738281 C 26.988281 29.492188 27.152344 29.414062 27.179688 30.175781 C 27.183594 30.28125 27.207031 30.398438 27.210938 30.546875 C 27.261719 30.9375 27.269531 31.25 27.171875 31.632812 C 27.101562 31.925781 27.007812 32.128906 26.839844 32.375 C 26.539062 32.785156 26.195312 33.078125 25.902344 33.507812 C 26.066406 33.054688 26.34375 32.660156 26.519531 32.210938 C 26.601562 31.984375 26.632812 31.8125 26.632812 31.574219 C 26.617188 31.308594 26.605469 31.253906 26.636719 30.980469 C 26.691406 30.570312 26.714844 30.503906 26.671875 30.070312 C 26.632812 30.65625 26.363281 30.96875 25.886719 31.308594 C 25.378906 31.660156 24.933594 31.875 24.554688 32.386719 C 24.84375 31.800781 25.234375 31.511719 25.679688 31.066406 C 25.789062 30.949219 25.882812 30.84375 25.964844 30.726562 C 26.269531 30.296875 26.050781 29.730469 25.914062 29.28125 C 25.835938 29 25.789062 28.761719 25.769531 28.472656 C 25.753906 28.03125 25.703125 27.78125 25.582031 27.601562 C 25.328125 27.222656 24.585938 26.90625 25.167969 26.203125 C 25.027344 26.25 24.925781 26.304688 24.816406 26.40625 C 24.707031 26.511719 24.648438 26.609375 24.59375 26.75 C 24.542969 26.90625 24.53125 27.03125 24.542969 27.199219 C 24.546875 27.253906 24.554688 27.304688 24.5625 27.355469 C 24.566406 27.503906 24.636719 27.679688 24.710938 27.835938 C 24.765625 27.949219 24.820312 28.0625 24.867188 28.183594 C 25 28.515625 25.058594 28.773438 25.035156 29.132812 C 25.007812 29.421875 24.949219 29.632812 24.792969 29.878906 C 24.660156 30.078125 24.527344 30.203125 24.335938 30.34375 C 23.964844 30.605469 23.617188 30.769531 23.265625 31.074219 C 23.515625 30.710938 23.847656 30.449219 24.113281 30.109375 C 24.230469 29.964844 24.304688 29.847656 24.363281 29.667969 C 24.417969 29.484375 24.414062 29.339844 24.390625 29.148438 C 24.34375 28.925781 24.257812 28.777344 24.121094 28.59375 C 24.085938 28.507812 23.710938 28.109375 23.621094 28 C 23.359375 27.675781 23.121094 27.289062 23.097656 26.871094 C 23.066406 26.292969 23.246094 25.859375 23.359375 25.273438 C 23.46875 24.722656 23.640625 24.460938 23.757812 23.984375 C 23.8125 23.71875 23.8125 23.523438 23.761719 23.253906 C 23.757812 23.445312 23.691406 23.765625 23.582031 23.921875 C 23.539062 24.003906 23.492188 24.074219 23.445312 24.144531 C 23.410156 23.367188 23.191406 22.667969 23.132812 21.851562 C 23.085938 21.1875 22.9375 20.621094 22.582031 19.964844 C 22.222656 19.40625 21.847656 19.023438 21.371094 18.652344 C 21.328125 18.667969 21.285156 18.683594 21.246094 18.699219 C 20.683594 18.910156 20.378906 19 19.765625 18.890625 C 19.441406 18.804688 19.269531 18.617188 18.972656 18.488281 C 18.8125 18.425781 18.691406 18.414062 18.519531 18.445312 C 18.265625 18.496094 18.074219 18.617188 17.871094 18.773438 C 18.0625 18.589844 18.242188 18.441406 18.492188 18.34375 C 18.6875 18.285156 18.828125 18.28125 19.023438 18.324219 C 19.292969 18.398438 19.5625 18.570312 19.808594 18.597656 C 20.292969 18.628906 20.542969 18.535156 20.914062 18.320312 C 20.324219 17.949219 19.722656 17.652344 19.132812 17.292969 C 18.910156 17.171875 18.703125 17.046875 18.523438 16.867188 C 18.460938 16.800781 18.410156 16.742188 18.367188 16.660156 C 18.339844 16.617188 18.324219 16.515625 18.328125 16.464844 C 18.34375 16.53125 18.371094 16.574219 18.417969 16.625 C 18.4375 16.65625 18.570312 16.738281 18.605469 16.761719 C 18.746094 16.839844 19.09375 16.960938 19.253906 16.996094 C 19.882812 17.152344 20.515625 17.296875 21.128906 17.5 C 21.433594 17.601562 21.703125 17.785156 21.980469 17.941406 C 22.195312 18.101562 22.382812 18.277344 22.59375 18.425781 C 23.167969 18.839844 24.128906 19.90625 24.539062 20.53125 C 24.769531 20.867188 25.117188 21.40625 25.472656 21.75 C 25.726562 21.996094 25.890625 22.128906 26.140625 22.414062 C 25.957031 22.097656 25.765625 21.828125 25.582031 21.519531 C 25.34375 21.128906 25.097656 20.601562 24.953125 20.285156 C 24.882812 20.128906 24.710938 19.972656 24.628906 19.835938 C 24.480469 19.570312 24.238281 19.417969 24.082031 19.175781 C 23.710938 18.582031 23.398438 18.257812 23.0625 17.636719 C 22.847656 17.238281 22.839844 16.566406 22.660156 16.332031 C 22.488281 16.113281 22.269531 15.941406 22.019531 15.757812 C 21.535156 15.421875 21.058594 15.160156 20.621094 14.757812 C 20.347656 14.496094 20.191406 14.273438 20.058594 13.921875 C 20 13.832031 19.890625 13.273438 19.863281 13.132812 C 19.75 12.582031 19.632812 12.191406 19.324219 11.839844 C 19.726562 12.15625 19.992188 12.433594 20.261719 13 C 20.363281 13.230469 20.449219 13.445312 20.582031 13.660156 C 20.730469 13.882812 20.867188 14.003906 21.089844 14.148438 C 21.457031 14.355469 21.882812 14.507812 22.289062 14.667969 C 22.402344 14.820312 22.554688 15.007812 22.773438 15.257812 C 23.171875 15.738281 23.203125 16.226562 23.527344 16.6875 C 23.28125 16.113281 23.332031 15.65625 22.976562 15.089844 C 22.3125 14.167969 22.4375 14.105469 22.316406 13.546875 C 22.3125 13.4375 22.308594 13.328125 22.308594 13.214844 C 22.324219 12.234375 22.453125 11.492188 22.8125 10.574219 C 23.191406 9.710938 23.609375 9.113281 24.253906 8.488281 C 24.226562 8.429688 24.191406 8.378906 24.136719 8.320312 C 24.101562 8.253906 23.832031 8.09375 23.761719 8.035156 C 23.605469 7.929688 23.472656 7.839844 23.335938 7.703125 C 23.210938 7.597656 23.09375 7.367188 23.054688 7.214844 C 23.160156 7.378906 23.261719 7.472656 23.4375 7.5625 C 23.589844 7.644531 23.734375 7.683594 23.898438 7.734375 C 24.082031 7.785156 24.238281 7.832031 24.410156 7.917969 C 24.503906 7.953125 24.601562 8.03125 24.6875 8.117188 C 25.699219 7.367188 26.71875 7.136719 27.984375 6.957031 L 28.011719 6.953125 C 29.292969 4.921875 29.082031 5.308594 31.113281 4.046875 C 29.296875 5.367188 29.601562 5.265625 28.769531 6.882812 C 29.992188 6.789062 31.222656 6.773438 32.453125 6.730469 C 32.671875 6.722656 32.882812 6.714844 33.09375 6.703125 C 33.65625 5.566406 34.367188 3.695312 34.945312 2.875 C 35.296875 2.410156 35.617188 2.214844 36.164062 2.027344 C 36.945312 1.804688 37.773438 1.75 38.582031 1.695312 C 38.585938 1.695312 38.597656 1.695312 38.601562 1.695312 C 38.617188 1.695312 38.699219 1.671875 38.722656 1.667969 C 38.683594 1.679688 38.640625 1.691406 38.601562 1.703125 C 38.601562 1.703125 38.582031 1.707031 38.582031 1.707031 C 37.789062 1.804688 36.976562 1.910156 36.230469 2.207031 C 35.75 2.410156 35.480469 2.601562 35.199219 3.042969 C 34.972656 3.457031 34.757812 4.019531 34.535156 4.625 C 34.957031 4.398438 35.378906 4.230469 35.894531 4.125 C 36.433594 4.019531 36.808594 4.023438 37.347656 4.109375 C 37.746094 4.171875 38.121094 4.261719 38.53125 4.289062 C 38.960938 4.332031 39.457031 4.195312 39.839844 4.003906 C 39.390625 4.273438 39.050781 4.390625 38.53125 4.433594 C 38.113281 4.449219 37.734375 4.402344 37.320312 4.378906 C 36.824219 4.359375 36.480469 4.386719 36 4.527344 C 35.320312 4.765625 34.757812 5.144531 34.191406 5.585938 C 34.058594 5.957031 33.925781 6.324219 33.789062 6.667969 C 37.09375 6.480469 39.632812 5.988281 42.71875 4.097656 C 42.820312 4.03125 42.855469 4.050781 42.976562 3.960938 C 42.875 4.046875 42.824219 4.046875 42.730469 4.117188 C 40.640625 5.605469 38.773438 6.394531 36.703125 6.894531 C 37.003906 6.925781 37.308594 6.96875 37.617188 7.03125 C 38.757812 7.292969 39.882812 7.582031 41.039062 7.75 C 43.664062 8.039062 45.84375 7.121094 48.636719 6.828125 C 45.789062 7.195312 43.636719 8.246094 41.003906 8.054688 C 39.824219 7.933594 38.691406 7.691406 37.527344 7.464844 C 35.96875 7.246094 34.617188 7.394531 33.117188 7.519531 C 32.921875 7.546875 32.722656 7.570312 32.519531 7.597656 C 31.070312 7.753906 29.613281 7.871094 28.179688 8.15625 C 27.171875 8.371094 26.246094 8.625 25.488281 9.363281 C 25.402344 9.453125 25.324219 9.539062 25.25 9.625 C 26.285156 9.429688 26.570312 9.722656 27.882812 9.757812 C 29.289062 9.710938 30.085938 9.261719 31.953125 9.277344 C 29.839844 9.371094 29.472656 9.894531 27.902344 10.105469 C 26.40625 10.195312 26.234375 9.855469 24.703125 10.414062 C 24.582031 10.636719 24.480469 10.882812 24.382812 11.164062 C 24.167969 11.863281 24.121094 12.425781 24.167969 13.15625 C 24.304688 14.578125 24.726562 15.714844 25.371094 16.925781 C 25.386719 16.875 25.402344 16.828125 25.421875 16.777344 C 25.574219 16.363281 25.730469 16.054688 26.003906 15.707031 C 26.292969 15.363281 26.554688 15.148438 26.953125 14.941406 C 27.667969 14.574219 28.453125 13.984375 29.1875 13.65625 C 29.710938 13.21875 29.792969 12.828125 30.113281 12.253906 C 30.316406 11.914062 30.496094 11.707031 30.8125 11.46875 C 31.273438 11.164062 31.714844 11.003906 32.242188 10.851562 C 31.753906 11.058594 31.339844 11.265625 30.957031 11.640625 C 30.707031 11.890625 30.578125 12.089844 30.445312 12.417969 C 30.292969 12.832031 30.230469 13.128906 30.101562 13.417969 C 30.527344 13.386719 30.921875 13.441406 31.378906 13.523438 C 31.90625 13.640625 32.429688 13.785156 32.953125 13.941406 C 33.582031 13.878906 33.941406 13.789062 34.480469 13.445312 C 35.054688 13.066406 35.464844 12.742188 36.09375 12.402344 C 35.472656 12.855469 35.207031 13.175781 34.691406 13.703125 C 34.453125 13.933594 34.238281 14.101562 34.015625 14.226562 C 34.144531 14.292969 34.269531 14.351562 34.398438 14.40625 C 35.621094 14.792969 37.3125 14.558594 38.53125 14.261719 C 39.507812 14.019531 40.351562 13.890625 41.359375 13.847656 C 42.109375 13.828125 42.707031 13.960938 43.386719 13.964844"/></g><path fill="#55C882" d="M 40.433594 1.707031 C 40.421875 2.191406 40.230469 2.667969 39.863281 3.039062 C 39.492188 3.40625 39.015625 3.597656 38.535156 3.613281 C 38.546875 3.128906 38.738281 2.648438 39.105469 2.28125 C 39.476562 1.914062 39.953125 1.71875 40.433594 1.707031" fill-rule="evenodd"/><path fill="#55C882" d="M 42.484375 4.929688 C 42.832031 5.261719 43.304688 5.472656 43.824219 5.476562 C 44.34375 5.480469 44.820312 5.285156 45.175781 4.957031 C 44.824219 4.621094 44.355469 4.410156 43.835938 4.40625 C 43.3125 4.402344 42.839844 4.601562 42.484375 4.929688" fill-rule="evenodd"/><path fill="#55C882" d="M 42.335938 1.0625 C 42.671875 1.410156 42.878906 1.882812 42.882812 2.402344 C 42.886719 2.925781 42.691406 3.402344 42.363281 3.757812 C 42.027344 3.410156 41.820312 2.9375 41.816406 2.414062 C 41.808594 1.890625 42.007812 1.417969 42.335938 1.0625" fill-rule="evenodd"/><path fill="#55C882" d="M 45.480469 2.140625 C 45 2.078125 44.5 2.1875 44.078125 2.492188 C 43.652344 2.796875 43.386719 3.238281 43.296875 3.714844 C 43.773438 3.777344 44.277344 3.667969 44.699219 3.363281 C 45.121094 3.058594 45.386719 2.617188 45.480469 2.140625" fill-rule="evenodd"/><path fill="#55C882" d="M 33.125 0.378906 C 33.140625 0.863281 33.332031 1.339844 33.699219 1.710938 C 34.066406 2.078125 34.546875 2.269531 35.027344 2.285156 C 35.015625 1.800781 34.824219 1.320312 34.453125 0.953125 C 34.085938 0.585938 33.609375 0.394531 33.125 0.378906" fill-rule="evenodd"/><path fill="#55C882" d="M 37.53125 -0.0195312 C 37.515625 0.464844 37.324219 0.941406 36.957031 1.3125 C 36.589844 1.679688 36.109375 1.871094 35.628906 1.886719 C 35.644531 1.402344 35.835938 0.921875 36.203125 0.554688 C 36.570312 0.183594 37.046875 -0.0078125 37.53125 -0.0195312" fill-rule="evenodd"/><path fill="#55C882" d="M 40.523438 0.515625 C 40.363281 0.972656 40.035156 1.371094 39.574219 1.613281 C 39.113281 1.851562 38.597656 1.890625 38.132812 1.757812 C 38.292969 1.300781 38.621094 0.902344 39.082031 0.660156 C 39.542969 0.421875 40.058594 0.382812 40.523438 0.515625" fill-rule="evenodd"/><path fill="#55C882" d="M 38.046875 2.042969 C 38.03125 2.523438 37.839844 3.003906 37.472656 3.375 C 37.105469 3.742188 36.628906 3.933594 36.144531 3.949219 C 36.160156 3.464844 36.351562 2.984375 36.71875 2.617188 C 37.085938 2.246094 37.5625 2.054688 38.046875 2.042969" fill-rule="evenodd"/><path fill="#55C882" d="M 42.765625 14.402344 C 42.914062 14.863281 43.230469 15.269531 43.683594 15.523438 C 44.140625 15.773438 44.652344 15.824219 45.121094 15.703125 C 44.972656 15.242188 44.65625 14.835938 44.199219 14.585938 C 43.746094 14.332031 43.234375 14.28125 42.765625 14.402344" fill-rule="evenodd"/><path fill="#55C882" d="M 42.597656 13.542969 C 42.453125 13.078125 42.480469 12.566406 42.710938 12.097656 C 42.9375 11.628906 43.328125 11.292969 43.78125 11.121094 C 43.921875 11.582031 43.898438 12.097656 43.667969 12.566406 C 43.4375 13.035156 43.046875 13.371094 42.597656 13.542969" fill-rule="evenodd"/><path fill="#55C882" d="M 43.523438 13.804688 C 43.820312 13.425781 44.257812 13.152344 44.773438 13.074219 C 45.289062 13 45.785156 13.128906 46.183594 13.40625 C 45.886719 13.785156 45.449219 14.058594 44.933594 14.132812 C 44.417969 14.210938 43.921875 14.082031 43.523438 13.804688" fill-rule="evenodd"/><g clip-path="url(#c)"><path fill="#55C882" d="M 48.6875 6.96875 C 48.953125 7.371094 49.367188 7.675781 49.875 7.796875 C 50.382812 7.914062 50.886719 7.824219 51.304688 7.582031 C 51.039062 7.179688 50.625 6.871094 50.117188 6.753906 C 49.613281 6.632812 49.105469 6.722656 48.6875 6.96875" fill-rule="evenodd"/></g><path fill="#55C882" d="M 49.332031 9 C 49.25 8.523438 48.996094 8.074219 48.582031 7.757812 C 48.167969 7.441406 47.667969 7.316406 47.1875 7.371094 C 47.269531 7.847656 47.523438 8.296875 47.9375 8.609375 C 48.351562 8.925781 48.851562 9.050781 49.332031 9" fill-rule="evenodd"/><path fill="#55C882" d="M 47.132812 6.707031 C 47.140625 6.226562 47.324219 5.742188 47.6875 5.367188 C 48.050781 4.996094 48.527344 4.796875 49.007812 4.773438 C 49 5.257812 48.816406 5.742188 48.453125 6.113281 C 48.09375 6.488281 47.617188 6.6875 47.132812 6.707031" fill-rule="evenodd"/><path fill="#55C882" d="M 35.152344 12.679688 C 34.78125 12.371094 34.519531 11.929688 34.453125 11.410156 C 34.386719 10.894531 34.527344 10.398438 34.8125 10.003906 C 35.183594 10.3125 35.445312 10.757812 35.511719 11.273438 C 35.578125 11.792969 35.4375 12.289062 35.152344 12.679688" fill-rule="evenodd"/><path fill="#55C882" d="M 35.839844 13.15625 C 36.191406 13.488281 36.664062 13.695312 37.183594 13.695312 C 37.703125 13.699219 38.175781 13.496094 38.53125 13.164062 C 38.179688 12.832031 37.707031 12.625 37.1875 12.625 C 36.667969 12.625 36.191406 12.824219 35.839844 13.15625" fill-rule="evenodd"/><path fill="#55C882" d="M 36.308594 12.15625 C 36.375 11.679688 36.621094 11.222656 37.027344 10.898438 C 37.4375 10.574219 37.933594 10.441406 38.414062 10.480469 C 38.34375 10.960938 38.101562 11.414062 37.691406 11.738281 C 37.285156 12.0625 36.789062 12.199219 36.308594 12.15625" fill-rule="evenodd"/><path fill="#55C882" d="M 30.597656 1.226562 C 30.214844 1.519531 29.9375 1.957031 29.855469 2.472656 C 29.773438 2.988281 29.898438 3.488281 30.167969 3.886719 C 30.550781 3.59375 30.828125 3.15625 30.910156 2.644531 C 30.992188 2.128906 30.867188 1.628906 30.597656 1.226562" fill-rule="evenodd"/><path fill="#55C882" d="M 30.816406 4.773438 C 31.195312 4.476562 31.683594 4.316406 32.203125 4.363281 C 32.722656 4.410156 33.175781 4.65625 33.496094 5.019531 C 33.113281 5.316406 32.625 5.476562 32.105469 5.429688 C 31.589844 5.382812 31.136719 5.136719 30.816406 4.773438" fill-rule="evenodd"/><path fill="#55C882" d="M 31.398438 3.824219 C 31.5625 3.371094 31.894531 2.976562 32.359375 2.742188 C 32.824219 2.507812 33.339844 2.476562 33.800781 2.613281 C 33.636719 3.066406 33.304688 3.464844 32.839844 3.699219 C 32.375 3.933594 31.859375 3.964844 31.398438 3.824219" fill-rule="evenodd"/><path fill="#55C882" d="M 38.183594 15.695312 C 38.144531 16.175781 38.285156 16.671875 38.613281 17.078125 C 38.941406 17.484375 39.398438 17.722656 39.875 17.789062 C 39.910156 17.308594 39.769531 16.808594 39.445312 16.402344 C 39.117188 16 38.660156 15.757812 38.183594 15.695312" fill-rule="evenodd"/><path fill="#55C882" d="M 39.308594 15.292969 C 39.71875 15.546875 40.222656 15.65625 40.730469 15.554688 C 41.242188 15.449219 41.667969 15.160156 41.945312 14.765625 C 41.535156 14.507812 41.03125 14.402344 40.523438 14.503906 C 40.011719 14.605469 39.589844 14.898438 39.308594 15.292969" fill-rule="evenodd"/><path fill="#55C882" d="M 40.027344 16.097656 C 40.160156 16.566406 40.460938 16.984375 40.910156 17.25 C 41.355469 17.519531 41.863281 17.585938 42.335938 17.484375 C 42.203125 17.019531 41.902344 16.601562 41.457031 16.332031 C 41.007812 16.0625 40.5 15.996094 40.027344 16.097656" fill-rule="evenodd"/><path fill="#55C882" d="M 27.199219 10.414062 C 27.660156 10.269531 28.171875 10.292969 28.640625 10.523438 C 29.109375 10.75 29.445312 11.140625 29.617188 11.59375 C 29.15625 11.738281 28.644531 11.710938 28.175781 11.484375 C 27.707031 11.257812 27.371094 10.867188 27.199219 10.414062" fill-rule="evenodd"/><path fill="#55C882" d="M 28.726562 9.273438 C 29.1875 9.417969 29.699219 9.394531 30.167969 9.164062 C 30.636719 8.9375 30.972656 8.546875 31.144531 8.09375 C 30.683594 7.949219 30.167969 7.976562 29.703125 8.203125 C 29.234375 8.429688 28.898438 8.820312 28.726562 9.273438" fill-rule="evenodd"/><path fill="#55C882" d="M 31.539062 9.488281 C 32 9.34375 32.511719 9.367188 32.980469 9.59375 C 33.449219 9.824219 33.785156 10.210938 33.957031 10.664062 C 33.496094 10.808594 32.984375 10.785156 32.515625 10.558594 C 32.046875 10.328125 31.710938 9.9375 31.539062 9.488281" fill-rule="evenodd"/><path fill="#55C882" d="M 31.921875 9.011719 C 32.144531 8.585938 32.527344 8.238281 33.019531 8.066406 C 33.507812 7.894531 34.023438 7.933594 34.460938 8.132812 C 34.238281 8.5625 33.859375 8.910156 33.367188 9.078125 C 32.875 9.25 32.363281 9.210938 31.921875 9.011719" fill-rule="evenodd"/><path fill="#55C882" d="M 21.15625 10.527344 C 20.773438 10.820312 20.5 11.253906 20.414062 11.769531 C 20.332031 12.285156 20.457031 12.785156 20.730469 13.1875 C 21.113281 12.890625 21.386719 12.457031 21.46875 11.941406 C 21.554688 11.425781 21.429688 10.925781 21.15625 10.527344" fill-rule="evenodd"/><path fill="#55C882" d="M 18.25 14.921875 C 18.671875 14.691406 19.179688 14.613281 19.683594 14.742188 C 20.1875 14.871094 20.59375 15.1875 20.851562 15.597656 C 20.429688 15.832031 19.921875 15.910156 19.417969 15.777344 C 18.914062 15.648438 18.503906 15.332031 18.25 14.921875" fill-rule="evenodd"/><path fill="#55C882" d="M 30.183594 15.722656 C 30.40625 15.296875 30.789062 14.949219 31.28125 14.777344 C 31.773438 14.605469 32.285156 14.644531 32.726562 14.84375 C 32.5 15.269531 32.121094 15.617188 31.628906 15.789062 C 31.136719 15.960938 30.625 15.921875 30.183594 15.722656" fill-rule="evenodd"/><path fill="#55C882" d="M 30.046875 16.34375 C 29.964844 16.820312 30.054688 17.328125 30.34375 17.761719 C 30.632812 18.195312 31.0625 18.480469 31.53125 18.589844 C 31.613281 18.113281 31.519531 17.605469 31.234375 17.167969 C 30.945312 16.734375 30.515625 16.453125 30.046875 16.34375" fill-rule="evenodd"/><path fill="#55C882" d="M 31.859375 16.4375 C 32.136719 16.832031 32.558594 17.125 33.070312 17.230469 C 33.578125 17.332031 34.082031 17.226562 34.492188 16.972656 C 34.214844 16.578125 33.792969 16.285156 33.28125 16.179688 C 32.769531 16.078125 32.265625 16.183594 31.859375 16.4375" fill-rule="evenodd"/><path fill="#55C882" d="M 31.300781 11.839844 C 31.675781 12.140625 32.164062 12.308594 32.683594 12.269531 C 33.199219 12.230469 33.65625 11.992188 33.980469 11.632812 C 33.605469 11.332031 33.121094 11.164062 32.601562 11.203125 C 32.082031 11.242188 31.625 11.480469 31.300781 11.839844" fill-rule="evenodd"/><path fill="#55C882" d="M 35.9375 5.085938 C 36.230469 5.472656 36.664062 5.746094 37.179688 5.832031 C 37.691406 5.914062 38.191406 5.789062 38.589844 5.519531 C 38.296875 5.132812 37.863281 4.859375 37.347656 4.773438 C 36.835938 4.691406 36.335938 4.816406 35.9375 5.085938" fill-rule="evenodd"/><g clip-path="url(#d)"><path fill="#55C882" d="M 17.980469 20.648438 C 18.113281 20.183594 18.417969 19.769531 18.867188 19.503906 C 19.316406 19.238281 19.824219 19.171875 20.296875 19.28125 C 20.160156 19.746094 19.855469 20.160156 19.410156 20.425781 C 18.960938 20.691406 18.449219 20.757812 17.980469 20.648438" fill-rule="evenodd"/></g><path fill="#55C882" d="M 27.515625 17.964844 C 27.589844 18.441406 27.835938 18.894531 28.25 19.214844 C 28.660156 19.535156 29.15625 19.667969 29.636719 19.621094 C 29.5625 19.144531 29.316406 18.691406 28.90625 18.371094 C 28.496094 18.050781 27.996094 17.917969 27.515625 17.964844" fill-rule="evenodd"/><path fill="#55C882" d="M 24.566406 4.875 C 24.183594 5.167969 23.90625 5.605469 23.824219 6.121094 C 23.742188 6.636719 23.867188 7.136719 24.136719 7.535156 C 24.519531 7.242188 24.796875 6.804688 24.878906 6.292969 C 24.960938 5.777344 24.835938 5.277344 24.566406 4.875" fill-rule="evenodd"/><path fill="#55C882" d="M 20.910156 9.257812 C 21.390625 9.320312 21.890625 9.210938 22.3125 8.902344 C 22.734375 8.597656 23 8.15625 23.089844 7.679688 C 22.613281 7.617188 22.109375 7.730469 21.6875 8.035156 C 21.265625 8.339844 21.003906 8.785156 20.910156 9.257812" fill-rule="evenodd"/><g fill="#5D6948"><g><g><path d="M 3.652344 -4.347656 C 3.652344 -4.347656 3.960938 -4.191406 3.960938 -3.789062 L 3.960938 -1.96875 C 3.960938 -0.929688 3.597656 -0.496094 2.492188 -0.496094 C 1.378906 -0.496094 1.019531 -0.929688 1.019531 -1.96875 L 1.019531 -3.789062 C 1.019531 -4.15625 1.324219 -4.347656 1.324219 -4.347656 L 0.125 -4.347656 C 0.125 -4.347656 0.429688 -4.1875 0.429688 -3.789062 L 0.429688 -1.882812 C 0.429688 -0.339844 1.410156 0.0664062 2.492188 0.0664062 C 3.566406 0.0664062 4.550781 -0.339844 4.550781 -1.882812 L 4.546875 -3.789062 C 4.546875 -4.191406 4.855469 -4.347656 4.855469 -4.347656 Z M 3.652344 -4.347656" transform="translate(46.431 26.544)"/></g></g></g><g fill="#5D6948"><g><g><path d="M 2.71875 0.0078125 L 3.925781 0.0078125 C 3.925781 0.0078125 3.621094 -0.179688 3.621094 -0.554688 L 3.621094 -1.675781 C 3.613281 -2.609375 3.21875 -3.355469 2.308594 -3.355469 C 1.71875 -3.355469 1.335938 -2.992188 1.074219 -2.453125 L 1.074219 -3.292969 L 0.175781 -3.292969 C 0.175781 -3.292969 0.476562 -3.105469 0.476562 -2.734375 L 0.476562 -0.554688 C 0.476562 -0.179688 0.175781 0.0078125 0.175781 0.0078125 L 1.371094 0.0078125 C 1.371094 0.0078125 1.066406 -0.179688 1.066406 -0.554688 L 1.066406 -1.6875 C 1.066406 -2.273438 1.496094 -2.789062 2.308594 -2.789062 C 2.894531 -2.789062 3.03125 -2.273438 3.03125 -1.738281 L 3.03125 -0.554688 C 3.03125 -0.179688 2.71875 0.0078125 2.71875 0.0078125 Z M 2.71875 0.0078125" transform="translate(52.373 26.544)"/></g></g></g><g fill="#5D6948"><g><g><path d="M 0.175781 0.0078125 L 1.371094 0.0078125 C 1.371094 0.0078125 1.0625 -0.179688 1.0625 -0.554688 L 1.066406 -3.292969 L 0.175781 -3.292969 C 0.175781 -3.292969 0.476562 -3.105469 0.476562 -2.734375 L 0.476562 -0.554688 C 0.476562 -0.179688 0.175781 0.0078125 0.175781 0.0078125 Z M 0.757812 -3.609375 C 1.007812 -3.609375 1.0625 -3.789062 1.0625 -4.007812 C 1.0625 -4.230469 1.007812 -4.410156 0.757812 -4.410156 C 0.535156 -4.410156 0.476562 -4.230469 0.476562 -4.007812 C 0.476562 -3.789062 0.535156 -3.609375 0.757812 -3.609375 Z M 0.757812 -3.609375" transform="translate(57.39 26.544)"/></g></g></g><g fill="#5D6948"><g><g><path d="M 1.894531 -2.726562 L 2.199219 -3.292969 L 1.097656 -3.292969 L 1.097656 -4.324219 L 0.503906 -4.324219 L 0.503906 -3.292969 L 0.199219 -3.292969 L 0.199219 -2.726562 L 0.503906 -2.726562 L 0.503906 0.0078125 L 1.398438 0.0078125 C 1.398438 0.0078125 1.09375 -0.179688 1.09375 -0.554688 L 1.09375 -2.726562 Z M 1.894531 -2.726562" transform="translate(59.887 26.544)"/></g></g></g><g fill="#5D6948"><g><g><path d="M 2.1875 -0.503906 C 1.1875 -0.503906 0.789062 -1.042969 0.789062 -1.652344 C 1.039062 -1.597656 1.902344 -1.371094 2.652344 -1.371094 C 3.515625 -1.371094 3.839844 -1.902344 3.839844 -2.25 C 3.839844 -2.597656 3.472656 -3.355469 2.054688 -3.355469 C 0.660156 -3.355469 0.203125 -2.335938 0.203125 -1.640625 C 0.203125 -1.148438 0.554688 0.0625 2.199219 0.0625 C 3.222656 0.0625 3.628906 -0.558594 3.8125 -0.988281 L 3.566406 -1.148438 C 3.253906 -0.703125 2.957031 -0.503906 2.1875 -0.503906 Z M 2.054688 -2.789062 C 2.917969 -2.789062 3.253906 -2.527344 3.253906 -2.265625 C 3.253906 -1.429688 1.160156 -1.882812 0.824219 -1.949219 C 0.917969 -2.414062 1.347656 -2.789062 2.054688 -2.789062 Z M 2.054688 -2.789062" transform="translate(63.097 26.544)"/></g></g></g><g fill="#5D6948"><g><g><path d="M 3.71875 -4.347656 L 0.179688 -4.347656 C 0.179688 -4.347656 0.484375 -4.105469 0.484375 -3.789062 L 0.484375 -0.554688 C 0.484375 -0.191406 0.179688 0 0.179688 0 L 1.386719 0 C 1.386719 0 1.074219 -0.1875 1.074219 -0.554688 L 1.074219 -1.929688 L 2.464844 -1.929688 C 2.765625 -1.929688 2.988281 -1.671875 2.988281 -1.671875 L 2.988281 -2.734375 C 2.988281 -2.734375 2.746094 -2.496094 2.472656 -2.496094 L 1.074219 -2.496094 L 1.074219 -3.335938 C 1.074219 -3.582031 1.273438 -3.777344 1.515625 -3.777344 L 3.167969 -3.777344 C 3.390625 -3.777344 4.007812 -3.066406 4.007812 -3.066406 Z M 3.71875 -4.347656" transform="translate(68.12 26.544)"/></g></g></g><g fill="#5D6948"><g><g><path d="M 2.023438 -3.355469 C 1.082031 -3.355469 0.203125 -2.589844 0.203125 -1.644531 C 0.203125 -0.703125 1.082031 0.0664062 2.023438 0.0664062 C 2.96875 0.0664062 3.851562 -0.703125 3.851562 -1.644531 C 3.851562 -2.589844 2.96875 -3.355469 2.023438 -3.355469 Z M 2.023438 -0.503906 C 1.28125 -0.503906 0.789062 -1.054688 0.789062 -1.644531 C 0.789062 -2.273438 1.28125 -2.789062 2.023438 -2.789062 C 2.769531 -2.789062 3.261719 -2.25 3.261719 -1.644531 C 3.261719 -1.066406 2.769531 -0.503906 2.023438 -0.503906 Z M 2.023438 -0.503906" transform="translate(73.162 26.544)"/></g></g></g><g fill="#5D6948"><g><g><path d="M 2.316406 -3.355469 C 1.726562 -3.355469 1.328125 -2.992188 1.066406 -2.453125 L 1.074219 -3.292969 L 0.175781 -3.292969 C 0.175781 -3.292969 0.476562 -3.105469 0.476562 -2.734375 L 0.476562 -0.554688 C 0.476562 -0.179688 0.175781 0.0078125 0.175781 0.0078125 L 1.371094 0.0078125 C 1.371094 0.0078125 1.066406 -0.179688 1.066406 -0.554688 L 1.066406 -1.6875 C 1.066406 -2.253906 1.503906 -2.789062 2.316406 -2.789062 C 2.777344 -2.789062 2.871094 -2.429688 2.871094 -1.851562 L 3.460938 -1.796875 C 3.433594 -2.660156 3.066406 -3.355469 2.316406 -3.355469 Z M 2.316406 -3.355469" transform="translate(78.179 26.544)"/></g></g></g><g fill="#5D6948"><g><g><path d="M 0.628906 0.0664062 C 0.886719 0.0664062 1.09375 -0.136719 1.09375 -0.398438 C 1.09375 -0.652344 0.886719 -0.863281 0.628906 -0.863281 C 0.371094 -0.863281 0.167969 -0.652344 0.167969 -0.398438 C 0.167969 -0.136719 0.371094 0.0664062 0.628906 0.0664062 Z M 0.628906 0.0664062" transform="translate(82.743 26.544)"/></g></g></g><g fill="#5D6948"><g><g><path d="M 5.261719 0 L 6.464844 0.0078125 C 6.464844 0.0078125 6.160156 -0.179688 6.160156 -0.554688 L 6.160156 -1.675781 C 6.15625 -2.609375 5.84375 -3.355469 4.851562 -3.355469 C 4.203125 -3.355469 3.714844 -2.917969 3.484375 -2.304688 C 3.355469 -2.917969 3.074219 -3.355469 2.296875 -3.355469 C 1.707031 -3.355469 1.324219 -2.992188 1.0625 -2.453125 L 1.0625 -3.292969 L 0.160156 -3.292969 C 0.160156 -3.292969 0.464844 -3.113281 0.464844 -2.734375 L 0.464844 -0.558594 C 0.464844 -0.1875 0.160156 0 0.160156 0 L 1.367188 0.0078125 C 1.367188 0.0078125 1.054688 -0.179688 1.054688 -0.554688 L 1.054688 -1.6875 C 1.054688 -2.265625 1.546875 -2.789062 2.296875 -2.789062 C 2.925781 -2.789062 3.019531 -2.253906 3.019531 -1.738281 L 3.019531 -0.558594 C 3.019531 -0.1875 2.707031 0 2.707031 0 L 3.914062 0.0078125 C 3.914062 0.0078125 3.609375 -0.179688 3.609375 -0.554688 L 3.609375 -1.675781 C 3.609375 -1.675781 3.609375 -1.675781 3.609375 -1.683594 C 3.609375 -2.25 4.105469 -2.789062 4.851562 -2.789062 C 5.476562 -2.789062 5.570312 -2.253906 5.570312 -1.738281 L 5.570312 -0.558594 C 5.570312 -0.1875 5.261719 0 5.261719 0 Z M 5.261719 0" transform="translate(84.966 26.544)"/></g></g></g><g fill="#5D6948"><g><g><path d="M 2.1875 -0.503906 C 1.1875 -0.503906 0.789062 -1.042969 0.789062 -1.652344 C 1.039062 -1.597656 1.902344 -1.371094 2.652344 -1.371094 C 3.515625 -1.371094 3.839844 -1.902344 3.839844 -2.25 C 3.839844 -2.597656 3.472656 -3.355469 2.054688 -3.355469 C 0.660156 -3.355469 0.203125 -2.335938 0.203125 -1.640625 C 0.203125 -1.148438 0.554688 0.0625 2.199219 0.0625 C 3.222656 0.0625 3.628906 -0.558594 3.8125 -0.988281 L 3.566406 -1.148438 C 3.253906 -0.703125 2.957031 -0.503906 2.1875 -0.503906 Z M 2.054688 -2.789062 C 2.917969 -2.789062 3.253906 -2.527344 3.253906 -2.265625 C 3.253906 -1.429688 1.160156 -1.882812 0.824219 -1.949219 C 0.917969 -2.414062 1.347656 -2.789062 2.054688 -2.789062 Z M 2.054688 -2.789062" transform="translate(92.528 26.544)"/></g></g></g></svg>